<?xml version="1.0" encoding="utf-8"?>
<!-- Generator: Adobe Illustrator 22.0.0, SVG Export Plug-In . SVG Version: 6.00 Build 0)  -->
<svg version="1.1" id="图层_1" xmlns="http://www.w3.org/2000/svg" xmlns:xlink="http://www.w3.org/1999/xlink" x="0px" y="0px"
	 viewBox="0 0 113.8 79.2" width="100px" height="auto" style="enable-background:new 0 0 113.8 79.2;" xml:space="preserve">
<style type="text/css">
	.st0{fill-rule:evenodd;clip-rule:evenodd;fill:#EFEFEF;}
	.st1{fill:#898989;}
	.st2{fill-rule:evenodd;clip-rule:evenodd;fill:#F18E1D;}
	.st3{fill-rule:evenodd;clip-rule:evenodd;fill:#24318F;}
	.st4{fill:#FFFFFF;}
</style>
<g>
	<path class="st0" d="M74.6,45.8H38.9c-2.7,0-5-2.2-5-5V5.1c0-2.7,2.2-5,5-5h35.7c2.7,0,5,2.2,5,5v35.7
		C79.6,43.6,77.4,45.8,74.6,45.8z"/>
	<path class="st1" d="M74.6,46H38.9c-2.8,0-5.1-2.3-5.1-5.1V5.1c0-2.8,2.3-5.1,5.1-5.1h35.7c2.8,0,5.1,2.3,5.1,5.1v35.7
		C79.7,43.7,77.4,46,74.6,46z M38.9,0.3c-2.7,0-4.8,2.2-4.8,4.8v35.7c0,2.7,2.2,4.8,4.8,4.8h35.7c2.7,0,4.8-2.2,4.8-4.8V5.1
		c0-2.7-2.2-4.8-4.8-4.8H38.9z"/>
	<g>
		<g>
			<path class="st2" d="M54.4,7.1L39.2,31.5c0.1,0.1,0.2,0.2,0.2,0.3c3.5-5.5,10-9.3,17.3-9.3c7.4,0,13.8,3.7,17.3,9.3
				c0.1-0.1,0.2-0.2,0.2-0.3L59.1,7.1C58,5.3,55.5,5.3,54.4,7.1z"/>
		</g>
	</g>
	<g>
		<g>
			<path class="st3" d="M54.4,4.1L39.2,28.5c0.1,0.1,0.2,0.2,0.2,0.3c3.5-5.5,10-9.3,17.3-9.3c7.4,0,13.8,3.7,17.3,9.3
				c0.1-0.1,0.2-0.2,0.2-0.3L59.1,4.1C58,2.3,55.5,2.3,54.4,4.1z"/>
		</g>
	</g>
	<path d="M41,34.7c-0.1,0.5-0.1,1.1-0.2,1.7c0,0.6-0.1,1.2-0.1,1.9c0,0.1,0,0.3,0,0.6c0,0,0,0,0,0c0.2,0,0.3,0,0.4,0
		c0.1,0,0.3,0,0.4,0c0.2,0,0.5,0,0.7,0c0.2,0,0.5,0,0.8-0.1L43,40.2h-4.1c0.1-0.7,0.1-1.5,0.2-2.4c0-0.9,0.1-1.9,0.1-3.1H41L41,34.7
		z M46.2,37c-0.3,0-0.4,0.1-0.6,0.3c-0.1,0.2-0.2,0.5-0.2,0.9c0,0.3,0.1,0.6,0.2,0.8c0.1,0.2,0.3,0.2,0.5,0.2c0.2,0,0.4-0.1,0.6-0.3
		c0.1-0.2,0.2-0.5,0.2-0.8c0-0.4-0.1-0.7-0.2-0.8C46.6,37.1,46.4,37,46.2,37L46.2,37z M43.8,38.2c0-0.7,0.2-1.3,0.7-1.7
		c0.4-0.4,1-0.6,1.8-0.6c0.7,0,1.3,0.2,1.7,0.5c0.4,0.4,0.6,0.9,0.6,1.6c0,0.7-0.2,1.3-0.6,1.7c-0.4,0.4-1,0.6-1.8,0.6
		c-0.7,0-1.3-0.2-1.7-0.5C44,39.4,43.8,38.9,43.8,38.2L43.8,38.2z M49.5,40.2c0.1-0.7,0.1-1.3,0.2-2c0-0.7,0.1-1.4,0.1-2.2h1.5v0.5
		c0.2-0.2,0.4-0.4,0.6-0.5c0.2-0.1,0.5-0.2,0.8-0.2c0.5,0,0.9,0.1,1.2,0.3c0.2,0.2,0.4,0.6,0.4,1c0,0.2,0,0.6-0.1,1.2
		c0,0.7-0.1,1.2-0.1,1.7h-1.6c0-0.4,0.1-0.8,0.1-1.2c0-0.4,0-0.6,0-0.9c0-0.4,0-0.7-0.1-0.8c-0.1-0.1-0.2-0.2-0.4-0.2
		c-0.3,0-0.6,0.2-0.7,0.6c-0.1,0.4-0.2,1.2-0.2,2.5H49.5L49.5,40.2z M55.9,40.7c0.3,0.1,0.6,0.2,0.8,0.2c0.2,0,0.5,0.1,0.6,0.1
		c0.3,0,0.6-0.1,0.7-0.2c0.2-0.2,0.2-0.4,0.2-0.7c0,0,0,0,0-0.1c0,0,0-0.1,0-0.1c-0.2,0.1-0.3,0.2-0.5,0.2c-0.2,0-0.4,0.1-0.6,0.1
		c-0.6,0-1-0.2-1.3-0.5c-0.3-0.3-0.5-0.8-0.5-1.3c0-0.8,0.3-1.4,0.8-1.8c0.5-0.4,1.3-0.6,2.2-0.6c0.3,0,0.6,0,0.9,0.1
		c0.3,0,0.6,0.1,0.8,0.2c-0.1,1-0.1,1.9-0.2,3c-0.1,1-0.1,1.6-0.1,1.6c-0.1,0.5-0.3,0.8-0.7,1c-0.4,0.2-0.9,0.3-1.5,0.3
		c-0.3,0-0.6,0-0.8-0.1c-0.3,0-0.5-0.1-0.8-0.2L55.9,40.7L55.9,40.7z M58.5,37c-0.1,0-0.1,0-0.2,0c-0.1,0-0.1,0-0.2,0
		c-0.3,0-0.6,0.1-0.8,0.3c-0.2,0.2-0.3,0.5-0.3,0.9c0,0.3,0.1,0.5,0.2,0.6c0.1,0.1,0.3,0.2,0.5,0.2c0.2,0,0.4-0.1,0.6-0.3
		c0.1-0.2,0.2-0.4,0.2-0.7L58.5,37L58.5,37z M63,36c0.1,0.2,0.1,0.3,0.1,0.4c0,0.1,0.1,0.2,0.1,0.3l0.1,0.4l0.2-0.4
		c0-0.1,0.1-0.2,0.1-0.3c0-0.1,0.1-0.2,0.1-0.4h1.8c-0.1,0.1-0.2,0.3-0.3,0.5c-0.1,0.2-0.3,0.4-0.4,0.7L64.3,38l0.5,0.9
		c0.1,0.2,0.2,0.3,0.3,0.5c0.1,0.2,0.3,0.4,0.5,0.7h-1.9c-0.1-0.2-0.1-0.3-0.2-0.4c-0.1-0.1-0.1-0.2-0.1-0.3L63.2,39L63,39.4
		c0,0-0.1,0.1-0.1,0.3c-0.1,0.2-0.1,0.3-0.2,0.4h-1.8c0.2-0.3,0.4-0.6,0.6-0.8c0.1-0.2,0.2-0.4,0.3-0.5l0.6-0.9l-0.6-1
		c0,0-0.1-0.1-0.2-0.3c-0.1-0.1-0.2-0.3-0.4-0.6H63L63,36z M66.6,35.7l0-1h1.6l0,1H66.6L66.6,35.7z M68.2,36.1
		c-0.1,0.6-0.1,1.2-0.2,1.9c0,0.7-0.1,1.4-0.1,2.2h-1.7c0.1-0.6,0.1-1.3,0.2-2c0-0.7,0.1-1.4,0.1-2.1H68.2L68.2,36.1z M69.3,40.2
		c0.1-0.7,0.1-1.3,0.2-2c0-0.7,0.1-1.4,0.1-2.2H71v0.5c0.2-0.2,0.4-0.4,0.6-0.5c0.2-0.1,0.5-0.2,0.8-0.2c0.5,0,0.9,0.1,1.2,0.3
		c0.2,0.2,0.4,0.6,0.4,1c0,0.2,0,0.6-0.1,1.2c0,0.7-0.1,1.2-0.1,1.7h-1.6c0-0.4,0.1-0.8,0.1-1.2c0-0.4,0-0.6,0-0.9
		c0-0.4,0-0.7-0.1-0.8c-0.1-0.1-0.2-0.2-0.4-0.2c-0.3,0-0.6,0.2-0.7,0.6c-0.1,0.4-0.2,1.2-0.2,2.5H69.3z"/>
</g>
<g>
	<g>
		<g>
			<polygon class="st4" points="75.1,55.7 75.7,54.4 73.9,54.4 73.9,50.9 71.2,50.9 71.2,54.4 69.2,54.4 69.2,55.7 71.2,55.7 
				71.2,65.3 69.2,65.8 69.2,67.1 75.7,65.3 75.7,64.1 73.9,64.5 73.9,55.7 			"/>
		</g>
		<path class="st4" d="M81,66.4c-0.7,0-1.3-0.6-1.3-1.3V54.2h2.6v9.9h2.8v-9.9h2.4v8.5h-1.7l0.6,1.3h3.9V52.9h-5.3v-2.4h-2.8v2.4
			h-2.6v-2.4h-2.8v2.4h-0.6v1.3h0.6v11.2c0,1.2,1,2.2,2.2,2.2v0h11.3l0.6-1.3H81z"/>
	</g>
	<g>
		<polygon class="st4" points="26,50.5 22.6,58 24.9,58 24.9,67.7 27.7,67.7 27.7,55.3 26.8,55.3 29,50.5 		"/>
		<polygon class="st4" points="44,51.9 37.9,51.9 37.9,50.5 35.1,50.5 35.1,51.9 29.2,51.9 29.2,53.1 43.3,53.1 		"/>
		<polygon class="st4" points="29.2,56.2 43.3,56.2 44,54.9 29.2,54.9 		"/>
		<polygon class="st4" points="29.2,59.2 43.3,59.2 44,57.9 29.2,57.9 		"/>
		<path class="st4" d="M43.8,65.5v-4.7H41V65c0,0.7-0.6,1.3-1.3,1.3v0h-7.7v-4.2h8.4l0.6-1.3H29.2v6.9h12.4
			C42.8,67.7,43.7,66.7,43.8,65.5z"/>
	</g>
	<g>
		<path class="st4" d="M19.2,53.4l0.6-1.3h-1.5l-0.6-1.6h-3.1l0.7,1.6H7.1l0.3-1.6h-3l-0.3,1.6H0.4v1.3h3.4c0,0-0.5,4-1.1,6.9
			C2.1,63.2,0,67.7,0,67.7h3c0,0,2.2-5,2.7-7.2c0.5-2.2,1.1-7.1,1.1-7.1H19.2z"/>
		<path class="st4" d="M17,64.5L16.7,66H13c-0.7,0-1.3-0.6-1.3-1.3h0v-2.8l6.3-3.2V56h-3v2.4l-3.3,1.8v-5.1H8.9v6.6l-3,1.6v1.6
			l3-1.6v2.2c0,1.2,1,2.2,2.2,2.2h7.8l0.5-3.2H17z"/>
	</g>
	<g>
		<path class="st4" d="M54.4,59.1h12l0.6-1.3h-6.7l0-1.5h6v-4.5h-2.8v0h0l0,0h-5l-0.5-1.3h-2.8l0.5,1.3l-8.4,0v11.2l-0.9,4.7h2.8
			l1-4.5v-4.1h1.4c0,0,0,4.9,0,6c0,1.2-0.9,2.6-0.9,2.6h2.8c0,0,0.9-1.3,0.9-2.6c0-1.2,0-3.7,0-3.7v-1.3V59.1z M50.2,53.1h12.5l0,0
			h0.9V55H50.2V53.1z M50.2,57.8v-1.5h7.4l0,1.5H50.2z"/>
		<path class="st4" d="M63,65.1c0,0.7-0.6,1.3-1.3,1.3h-2.8l0.6,1.3h4c1.2,0,2.2-1,2.2-2.2v-5.3H55.1l-0.6,1.3H63V65.1z"/>
	</g>
	<g>
		<polygon class="st4" points="113.4,51.7 105.9,51.7 105.9,50.5 102.3,50.5 102.3,51.7 94.8,51.7 94.8,53.1 112.7,53.1 		"/>
		<path class="st4" d="M109.8,56.8l1.2-3.2h-3.2l-1.2,3.2h-4.3l-1.2-3.2H98l1.2,3.3l-4.2,0c0,0,0,5.2,0,7.2c0,2-1.7,3.7-1.7,3.7H96
			c0,0,0.9,0,1.6-0.7c0.7-0.7,0.7-1.6,0.7-1.6l0-7.4h14.7l0.9-1.3H109.8z"/>
	</g>
</g>
<g>
	<path class="st4" d="M11.3,72.1v-0.8h8v0.8h-3.6l-0.2,1.1h3v5.7h-0.9v-0.6H13v0.6h-0.9v-5.7h2.4l0.2-1.1H11.3z M13,74v1.4h4.6V74
		H13z M13,76.2v1.4h4.6v-1.4H13z"/>
	<path class="st4" d="M22.5,74.6c0-0.1-0.1-0.2-0.2-0.3c-0.1-0.1-0.2-0.3-0.3-0.5c0.8-0.7,1.5-1.6,1.9-2.8l1,0.1
		c-0.1,0.3-0.3,0.6-0.4,0.8h5.3v0.8H27v1.3h2.5v0.8H27v1.6h3.1v0.8H27v1.9h-0.9v-1.9h-4.2v-0.8h1.3v-2.4h2.9v-1.3H24
		C23.6,73.4,23.1,74,22.5,74.6z M24.1,74.9v1.6h2v-1.6H24.1z"/>
	<path class="st4" d="M35.2,73.6v-0.7h2v-0.6h-1.6v-0.6h1.6V71h0.8v0.6h2v1.3h0.7v0.7h-0.7v1.3h-2v0.6h2.2v0.7h-2.2v0.6h2.4v0.7
		h-2.4v0.8c1.4,0,2.3,0,2.7,0c-0.1,0.2-0.2,0.5-0.2,0.8c-0.3,0-0.8,0-1.6,0c-0.9,0-1.5,0-2,0c-1.4,0-2.3-0.3-2.9-0.8
		c-0.3,0.4-0.7,0.7-1.1,1.1c0,0-0.1-0.1-0.1-0.2c-0.2-0.3-0.3-0.5-0.3-0.6c0.4-0.3,0.7-0.6,0.9-1c-0.3-0.5-0.6-1.1-0.9-1.8l0.6-0.3
		c0.2,0.6,0.4,1,0.6,1.4c0.2-0.5,0.3-1.1,0.4-1.8h-1.6v-0.8l1.4-1.7h-1.5v-0.8h2.4v0.8l-1.5,1.7h1.4v0.3c-0.1,1.3-0.3,2.2-0.6,2.9
		c0.5,0.5,1.3,0.8,2.5,0.7c0,0,0.1,0,0.1,0c0,0,0,0,0.1,0v-0.8h-2v-0.7h2v-0.6h-1.7v-0.7h1.7v-0.6h-1.7v-0.6h1.7v-0.6H35.2z
		 M39.3,72.3h-1.2v0.6h1.2V72.3z M38.1,73.6v0.6h1.2v-0.6H38.1z"/>
	<path class="st4" d="M43.8,73.9c-0.1-0.1-0.2-0.2-0.3-0.3c-0.1-0.1-0.2-0.2-0.3-0.3c0.6-0.7,1.1-1.4,1.4-2.2l0.9,0.1
		c0,0.1-0.1,0.2-0.1,0.4c0,0.1-0.1,0.2-0.1,0.3h2.1v0.8h-2.5C44.6,73,44.3,73.5,43.8,73.9z M43.5,75v-0.8h2.6V75h-0.9v2.1l0.9-0.2
		c0,0.3,0,0.6,0,0.8c-0.2,0-0.5,0.1-1,0.2c-0.8,0.2-1.4,0.3-1.7,0.3l-0.1-0.8c0.3,0,0.7-0.1,1.1-0.2V75H43.5z M45.8,74
		c-0.2-0.3-0.5-0.6-0.8-0.9l0.6-0.4c0.3,0.3,0.6,0.6,0.8,0.9L45.8,74z M46.3,79.2c-0.1-0.1-0.2-0.2-0.5-0.3
		c-0.1-0.1-0.2-0.1-0.2-0.2c0.8-0.6,1.1-1.6,1.1-3V74h3.6v3.8c0,0.2,0.1,0.3,0.2,0.3h0.1c0.2,0,0.3-0.1,0.3-0.4c0-0.2,0.1-0.5,0.1-1
		c0,0.1,0,0,0-0.2c0.1,0,0.3,0.1,0.5,0.2c0.1,0,0.1,0,0.2,0c0,0.2-0.1,0.5-0.1,0.9c0,0.1,0,0.2,0,0.3c-0.1,0.6-0.4,0.9-1,0.9h-0.3
		c-0.6,0-0.9-0.3-0.9-0.9v-3.2h-1.9v0.9C47.5,77.3,47.1,78.4,46.3,79.2z M47.8,73.8c-0.1-0.1-0.2-0.2-0.4-0.3
		c-0.1-0.1-0.2-0.2-0.3-0.2c0.5-0.6,1-1.4,1.3-2.3l0.9,0.1c0,0-0.1,0.1-0.1,0.2c0,0.1-0.1,0.2-0.2,0.4h2.4v0.8h-2.8
		C48.4,73,48.1,73.4,47.8,73.8z M48.6,77.4c-0.3-0.3-0.7-0.8-1.2-1.3l0.6-0.5c0.3,0.2,0.6,0.6,1.1,1.1c0,0.1,0.1,0.1,0.1,0.2
		L48.6,77.4z M49.7,74c-0.1-0.1-0.2-0.2-0.3-0.3c-0.2-0.3-0.4-0.5-0.6-0.7l0.7-0.4c0.1,0.1,0.2,0.2,0.4,0.5c0.2,0.2,0.3,0.4,0.4,0.5
		L49.7,74z"/>
	<path class="st4" d="M57.4,74.5v1.2h-1.3v-1.2H57.4z"/>
	<path class="st4" d="M62.7,73.2v-0.8h3V71h0.9v1.3h3v0.8h-3v1.3h3.5v0.9h-3.1c0.8,1,1.8,1.8,3.2,2.4c-0.1,0.1-0.2,0.2-0.3,0.4
		c-0.1,0.2-0.2,0.3-0.3,0.4c-1.4-0.7-2.4-1.6-3-2.6v3.2h-0.9V76c-0.7,1.2-1.8,2-3.1,2.7c-0.1-0.1-0.2-0.3-0.4-0.5
		c-0.1-0.1-0.1-0.2-0.1-0.2c1.4-0.7,2.5-1.6,3.2-2.6h-3.2v-0.9h3.6v-1.3H62.7z"/>
	<path class="st4" d="M73.4,72.9v-0.8h3.1v-1h0.9v1h3.1v0.8h-3.1V75h3.5v0.8h-3.2c0.8,0.9,1.9,1.5,3.3,2c0,0-0.1,0.1-0.1,0.2
		c-0.2,0.3-0.3,0.5-0.4,0.6c-1.4-0.6-2.4-1.3-3.1-2.1v2.7h-0.9v-2.7c-0.7,0.9-1.8,1.6-3.2,2.3c-0.1-0.2-0.3-0.5-0.5-0.8
		c1.3-0.5,2.4-1.2,3.3-2.1h-3.1V75h3.5v-2.1H73.4z M75,74.9c-0.3-0.5-0.7-0.9-1.1-1.3l0.6-0.5c0.4,0.4,0.8,0.8,1.1,1.2L75,74.9z
		 M78.7,74.9l-0.6-0.6c0.5-0.4,0.9-0.8,1.2-1.3l0.7,0.5C79.6,74,79.2,74.4,78.7,74.9z"/>
	<path class="st4" d="M84,79.2c-0.1-0.2-0.2-0.5-0.4-0.8c2.4-0.2,3.6-0.6,3.6-1.5c0-0.2,0-0.4,0-0.6h0.9c0,0.1,0,0.2,0,0.3
		c0,0.2,0,0.3,0,0.4c0,0,0,0.1,0,0.1c0,0.1,0,0.2-0.1,0.2c0.1,0,0.3,0.1,0.5,0.2c0.7,0.2,1.7,0.5,2.9,0.9l-0.4,0.8
		c-0.2,0-0.4-0.1-0.6-0.2c-1.3-0.5-2.2-0.8-2.8-0.9C87.1,78.5,85.9,78.9,84,79.2z M84,72.3v-0.7h3.2V71h0.9v0.6h3.2v0.7h-3.2v0.5
		h2.8v0.6h-2.8v0.6h3.6v0.7h-8v-0.7h3.5v-0.6h-2.8v-0.6h2.8v-0.5H84z M84.6,77.6v-2.3h6.2v2.3h-0.9V76h-4.4v1.6H84.6z"/>
	<path class="st4" d="M94.5,76c-0.1-0.4-0.2-0.8-0.3-1.1c0.8-1.1,1.4-2.4,1.8-3.8l0.9,0.3c-0.2,0.7-0.5,1.3-0.7,1.7v6.1h-0.9v-4.4
		c0,0-0.1,0.1-0.1,0.2C95,75.2,94.8,75.6,94.5,76z M97.3,72.7c0-0.3-0.1-0.6-0.2-0.9c1.6-0.1,3.3-0.2,4.9-0.3l0.2,0.8
		c-0.6,0.1-1.3,0.1-2,0.2v2.2h2.3v0.9h-2.3v2.3h2.1v0.8h-5.2v-0.8h2.2v-2.3h-2.4v-0.9h2.4v-2.2C98.6,72.6,98,72.7,97.3,72.7z"/>
</g>
</svg>
